<?xml version="1.0" standalone="no"?>
<svg xmlns="http://www.w3.org/2000/svg" xmlns:xlink="http://www.w3.org/1999/xlink" width="941pt" height="1119pt" viewBox="0.00 0.00 941.02 1119.40">
<g id="graph0" class="graph" transform="translate(27.91870196565415,1041.662549183814) scale(0.8681402276010426)" data-name="">
<polygon fill="white" stroke="transparent" points="-4,4 -4,-1115.4 937.02,-1115.4 937.02,4 -4,4" style=""/>
<!-- 5 -->
<g id="node1" class="node" pointer-events="visible" data-name="5">

<path fill="#bfe6d3" stroke="white" d="M149.93,-1111.4C149.93,-1111.4 110.07,-1111.4 110.07,-1111.4 104.07,-1111.4 98.07,-1105.4 98.07,-1099.4 98.07,-1099.4 98.07,-1087.4 98.07,-1087.4 98.07,-1081.4 104.07,-1075.4 110.07,-1075.4 110.07,-1075.4 149.93,-1075.4 149.93,-1075.4 155.93,-1075.4 161.93,-1081.4 161.93,-1087.4 161.93,-1087.4 161.93,-1099.4 161.93,-1099.4 161.93,-1105.4 155.93,-1111.4 149.93,-1111.4" style=""/>
<text text-anchor="middle" x="130" y="-1089.2" font-family="Times,serif" font-size="14.00" style="">program</text>
</g>
<!-- 6 -->
<g id="node2" class="node" pointer-events="visible" data-name="6">

<path fill="#bfe6d3" stroke="white" d="M174.4,-1038.4C174.4,-1038.4 85.6,-1038.4 85.6,-1038.4 79.6,-1038.4 73.6,-1032.4 73.6,-1026.4 73.6,-1026.4 73.6,-1014.4 73.6,-1014.4 73.6,-1008.4 79.6,-1002.4 85.6,-1002.4 85.6,-1002.4 174.4,-1002.4 174.4,-1002.4 180.4,-1002.4 186.4,-1008.4 186.4,-1014.4 186.4,-1014.4 186.4,-1026.4 186.4,-1026.4 186.4,-1032.4 180.4,-1038.4 174.4,-1038.4" style=""/>
<text text-anchor="middle" x="130" y="-1016.2" font-family="Times,serif" font-size="14.00" style="">class_declaration</text>
</g>
<!-- 5&#45;&gt;6 -->
<g id="edge1" class="edge" data-name="5-&gt;6">

<path fill="none" stroke="indigo" d="M130,-1075.21C130,-1067.19 130,-1057.45 130,-1048.47" style=""/>
<polygon fill="indigo" stroke="indigo" points="133.5,-1048.43 130,-1038.43 126.5,-1048.43 133.5,-1048.43" style=""/>
</g>
<!-- 7 -->
<g id="node3" class="node" pointer-events="visible" data-name="7">

<path fill="#bfe6d3" stroke="white" d="M72.66,-965.4C72.66,-965.4 27.34,-965.4 27.34,-965.4 21.34,-965.4 15.34,-959.4 15.34,-953.4 15.34,-953.4 15.34,-941.4 15.34,-941.4 15.34,-935.4 21.34,-929.4 27.34,-929.4 27.34,-929.4 72.66,-929.4 72.66,-929.4 78.66,-929.4 84.66,-935.4 84.66,-941.4 84.66,-941.4 84.66,-953.4 84.66,-953.4 84.66,-959.4 78.66,-965.4 72.66,-965.4" style=""/>
<text text-anchor="middle" x="50" y="-943.2" font-family="Times,serif" font-size="14.00" style="">modifiers</text>
</g>
<!-- 6&#45;&gt;7 -->
<g id="edge2" class="edge" data-name="6-&gt;7">

<path fill="none" stroke="indigo" d="M110.63,-1002.21C100.51,-993.23 87.96,-982.09 76.91,-972.29" style=""/>
<polygon fill="indigo" stroke="indigo" points="78.99,-969.45 69.19,-965.43 74.34,-974.68 78.99,-969.45" style=""/>
</g>
<!-- 8 -->
<g id="node4" class="node" pointer-events="visible" data-name="8">

<path fill="#bfe6d3" stroke="white" d="M145,-965.4C145,-965.4 115,-965.4 115,-965.4 109,-965.4 103,-959.4 103,-953.4 103,-953.4 103,-941.4 103,-941.4 103,-935.4 109,-929.4 115,-929.4 115,-929.4 145,-929.4 145,-929.4 151,-929.4 157,-935.4 157,-941.4 157,-941.4 157,-953.4 157,-953.4 157,-959.4 151,-965.4 145,-965.4" style=""/>
<text text-anchor="middle" x="130" y="-943.2" font-family="Times,serif" font-size="14.00" style="">Max</text>
</g>
<!-- 6&#45;&gt;8 -->
<g id="edge3" class="edge" data-name="6-&gt;8">

<path fill="none" stroke="indigo" d="M130,-1002.21C130,-994.19 130,-984.45 130,-975.47" style=""/>
<polygon fill="indigo" stroke="indigo" points="133.5,-975.43 130,-965.43 126.5,-975.43 133.5,-975.43" style=""/>
</g>
<!-- 9 -->
<g id="node5" class="node" pointer-events="visible" data-name="9">

<path fill="#bfe6d3" stroke="white" d="M241.21,-965.4C241.21,-965.4 186.79,-965.4 186.79,-965.4 180.79,-965.4 174.79,-959.4 174.79,-953.4 174.79,-953.4 174.79,-941.4 174.79,-941.4 174.79,-935.4 180.79,-929.4 186.79,-929.4 186.79,-929.4 241.21,-929.4 241.21,-929.4 247.21,-929.4 253.21,-935.4 253.21,-941.4 253.21,-941.4 253.21,-953.4 253.21,-953.4 253.21,-959.4 247.21,-965.4 241.21,-965.4" style=""/>
<text text-anchor="middle" x="214" y="-943.2" font-family="Times,serif" font-size="14.00" style="">class_body</text>
</g>
<!-- 6&#45;&gt;9 -->
<g id="edge4" class="edge" data-name="6-&gt;9">

<path fill="none" stroke="indigo" d="M150.33,-1002.21C161.06,-993.14 174.39,-981.88 186.08,-972" style=""/>
<polygon fill="indigo" stroke="indigo" points="188.48,-974.56 193.85,-965.43 183.96,-969.21 188.48,-974.56" style=""/>
</g>
<!-- 10 -->
<g id="node6" class="node" pointer-events="visible" data-name="10">

<path fill="#bfe6d3" stroke="white" d="M332.69,-876.6C332.69,-876.6 215.31,-876.6 215.31,-876.6 209.31,-876.6 203.31,-870.6 203.31,-864.6 203.31,-864.6 203.31,-852.6 203.31,-852.6 203.31,-846.6 209.31,-840.6 215.31,-840.6 215.31,-840.6 332.69,-840.6 332.69,-840.6 338.69,-840.6 344.69,-846.6 344.69,-852.6 344.69,-852.6 344.69,-864.6 344.69,-864.6 344.69,-870.6 338.69,-876.6 332.69,-876.6" style=""/>
<text text-anchor="middle" x="274" y="-854.4" font-family="Times,serif" font-size="14.00" style="">1_ main(String[] args)</text>
</g>
<!-- 9&#45;&gt;10 -->
<g id="edge5" class="edge" data-name="9-&gt;10">

<path fill="none" stroke="indigo" d="M225.85,-929.25C234.56,-916.65 246.55,-899.32 256.38,-885.1" style=""/>
<polygon fill="indigo" stroke="indigo" points="259.36,-886.93 262.17,-876.71 253.61,-882.95 259.36,-886.93" style=""/>
</g>
<!-- 11 -->
<g id="node7" class="node" pointer-events="visible" data-name="11">

<path fill="#bfe6d3" stroke="white" d="M111.66,-803.6C111.66,-803.6 66.34,-803.6 66.34,-803.6 60.34,-803.6 54.34,-797.6 54.34,-791.6 54.34,-791.6 54.34,-779.6 54.34,-779.6 54.34,-773.6 60.34,-767.6 66.34,-767.6 66.34,-767.6 111.66,-767.6 111.66,-767.6 117.66,-767.6 123.66,-773.6 123.66,-779.6 123.66,-779.6 123.66,-791.6 123.66,-791.6 123.66,-797.6 117.66,-803.6 111.66,-803.6" style=""/>
<text text-anchor="middle" x="89" y="-781.4" font-family="Times,serif" font-size="14.00" style="">modifiers</text>
</g>
<!-- 10&#45;&gt;11 -->
<g id="edge6" class="edge" data-name="10-&gt;11">

<path fill="none" stroke="indigo" d="M229.22,-840.49C203.66,-830.71 170.8,-818.13 133.61,-803.83" style=""/>
<polygon fill="indigo" stroke="indigo" points="134.65,-800.48 124.06,-800.16 132.14,-807.01 134.65,-800.48" style=""/>
</g>
<!-- 12 -->
<g id="node8" class="node" pointer-events="visible" data-name="12">

<path fill="#bfe6d3" stroke="white" d="M184,-803.6C184,-803.6 154,-803.6 154,-803.6 148,-803.6 142,-797.6 142,-791.6 142,-791.6 142,-779.6 142,-779.6 142,-773.6 148,-767.6 154,-767.6 154,-767.6 184,-767.6 184,-767.6 190,-767.6 196,-773.6 196,-779.6 196,-779.6 196,-791.6 196,-791.6 196,-797.6 190,-803.6 184,-803.6" style=""/>
<text text-anchor="middle" x="169" y="-781.4" font-family="Times,serif" font-size="14.00" style="">void</text>
</g>
<!-- 10&#45;&gt;12 -->
<g id="edge7" class="edge" data-name="10-&gt;12">

<path fill="none" stroke="indigo" d="M248.85,-840.59C235.05,-831.27 217.76,-819.57 202.8,-809.46" style=""/>
<polygon fill="indigo" stroke="indigo" points="204.55,-806.42 194.31,-803.71 200.63,-812.21 204.55,-806.42" style=""/>
</g>
<!-- 13 -->
<g id="node9" class="node" pointer-events="visible" data-name="13">

<path fill="#bfe6d3" stroke="white" d="M256,-803.6C256,-803.6 226,-803.6 226,-803.6 220,-803.6 214,-797.6 214,-791.6 214,-791.6 214,-779.6 214,-779.6 214,-773.6 220,-767.6 226,-767.6 226,-767.6 256,-767.6 256,-767.6 262,-767.6 268,-773.6 268,-779.6 268,-779.6 268,-791.6 268,-791.6 268,-797.6 262,-803.6 256,-803.6" style=""/>
<text text-anchor="middle" x="241" y="-781.4" font-family="Times,serif" font-size="14.00" style="">main</text>
</g>
<!-- 10&#45;&gt;13 -->
<g id="edge8" class="edge" data-name="10-&gt;13">

<path fill="none" stroke="indigo" d="M266.01,-840.41C262.16,-832.13 257.46,-822.01 253.17,-812.79" style=""/>
<polygon fill="indigo" stroke="indigo" points="256.3,-811.22 248.91,-803.63 249.96,-814.17 256.3,-811.22" style=""/>
</g>
<!-- 14 -->
<g id="node10" class="node" pointer-events="visible" data-name="14">

<path fill="#bfe6d3" stroke="white" d="M395.72,-803.6C395.72,-803.6 298.28,-803.6 298.28,-803.6 292.28,-803.6 286.28,-797.6 286.28,-791.6 286.28,-791.6 286.28,-779.6 286.28,-779.6 286.28,-773.6 292.28,-767.6 298.28,-767.6 298.28,-767.6 395.72,-767.6 395.72,-767.6 401.72,-767.6 407.72,-773.6 407.72,-779.6 407.72,-779.6 407.72,-791.6 407.72,-791.6 407.72,-797.6 401.72,-803.6 395.72,-803.6" style=""/>
<text text-anchor="middle" x="347" y="-781.4" font-family="Times,serif" font-size="14.00" style="">formal_parameters</text>
</g>
<!-- 10&#45;&gt;14 -->
<g id="edge9" class="edge" data-name="10-&gt;14">

<path fill="none" stroke="indigo" d="M291.67,-840.41C300.82,-831.52 312.14,-820.51 322.15,-810.77" style=""/>
<polygon fill="indigo" stroke="indigo" points="324.76,-813.11 329.49,-803.63 319.88,-808.09 324.76,-813.11" style=""/>
</g>
<!-- 20 -->
<g id="node16" class="node" pointer-events="visible" data-name="20">

<path fill="#bfe6d3" stroke="white" d="M468,-803.6C468,-803.6 438,-803.6 438,-803.6 432,-803.6 426,-797.6 426,-791.6 426,-791.6 426,-779.6 426,-779.6 426,-773.6 432,-767.6 438,-767.6 438,-767.6 468,-767.6 468,-767.6 474,-767.6 480,-773.6 480,-779.6 480,-779.6 480,-791.6 480,-791.6 480,-797.6 474,-803.6 468,-803.6" style=""/>
<text text-anchor="middle" x="453" y="-781.4" font-family="Times,serif" font-size="14.00" style="">block</text>
</g>
<!-- 10&#45;&gt;20 -->
<g id="edge10" class="edge" data-name="10-&gt;20">

<path fill="none" stroke="indigo" d="M322.05,-840.55C347.8,-831.16 380.19,-818.95 416.63,-803.61" style=""/>
<polygon fill="indigo" stroke="indigo" points="418.14,-806.77 425.98,-799.64 415.41,-800.33 418.14,-806.77" style=""/>
</g>
<!-- 21 -->
<g id="node17" class="node" pointer-events="visible" data-name="21">

<path fill="#bfe6d3" stroke="white" d="M619.27,-730.6C619.27,-730.6 542.73,-730.6 542.73,-730.6 536.73,-730.6 530.73,-724.6 530.73,-718.6 530.73,-718.6 530.73,-706.6 530.73,-706.6 530.73,-700.6 536.73,-694.6 542.73,-694.6 542.73,-694.6 619.27,-694.6 619.27,-694.6 625.27,-694.6 631.27,-700.6 631.27,-706.6 631.27,-706.6 631.27,-718.6 631.27,-718.6 631.27,-724.6 625.27,-730.6 619.27,-730.6" style=""/>
<text text-anchor="middle" x="581" y="-708.4" font-family="Times,serif" font-size="14.00" style="">2_ int x,y,max;</text>
</g>
<!-- 10&#45;&gt;21 -->
<g id="edge11" class="edge" data-name="10-&gt;21">

<path fill="none" stroke="red" d="M344.76,-849.41C388.47,-842.09 444.5,-828.5 489,-803.6 518.3,-787.2 544.91,-759.04 561.88,-738.57" style=""/>
<polygon fill="red" stroke="red" points="564.76,-740.58 568.33,-730.61 559.32,-736.18 564.76,-740.58" style=""/>
<text text-anchor="middle" x="575.82" y="-781.4" font-family="Times,serif" font-size="14.00" style="">first_next_line</text>
</g>
<!-- 15 -->
<g id="node11" class="node" pointer-events="visible" data-name="15">

<path fill="#bfe6d3" stroke="white" d="M144.28,-730.6C144.28,-730.6 51.72,-730.6 51.72,-730.6 45.72,-730.6 39.72,-724.6 39.72,-718.6 39.72,-718.6 39.72,-706.6 39.72,-706.6 39.72,-700.6 45.72,-694.6 51.72,-694.6 51.72,-694.6 144.28,-694.6 144.28,-694.6 150.28,-694.6 156.28,-700.6 156.28,-706.6 156.28,-706.6 156.28,-718.6 156.28,-718.6 156.28,-724.6 150.28,-730.6 144.28,-730.6" style=""/>
<text text-anchor="middle" x="98" y="-708.4" font-family="Times,serif" font-size="14.00" style="">formal_parameter</text>
</g>
<!-- 14&#45;&gt;15 -->
<g id="edge12" class="edge" data-name="14-&gt;15">

<path fill="none" stroke="indigo" d="M285.97,-769.51C282.94,-768.84 279.94,-768.2 277,-767.6 229.76,-757.9 215.85,-764.55 170,-749.6 158.7,-745.91 146.95,-740.7 136.31,-735.39" style=""/>
<polygon fill="indigo" stroke="indigo" points="137.77,-732.2 127.28,-730.72 134.56,-738.42 137.77,-732.2" style=""/>
</g>
<!-- 16 -->
<g id="node12" class="node" pointer-events="visible" data-name="16">

<path fill="#bfe6d3" stroke="white" d="M135.86,-641.8C135.86,-641.8 84.14,-641.8 84.14,-641.8 78.14,-641.8 72.14,-635.8 72.14,-629.8 72.14,-629.8 72.14,-617.8 72.14,-617.8 72.14,-611.8 78.14,-605.8 84.14,-605.8 84.14,-605.8 135.86,-605.8 135.86,-605.8 141.86,-605.8 147.86,-611.8 147.86,-617.8 147.86,-617.8 147.86,-629.8 147.86,-629.8 147.86,-635.8 141.86,-641.8 135.86,-641.8" style=""/>
<text text-anchor="middle" x="110" y="-619.6" font-family="Times,serif" font-size="14.00" style="">array_type</text>
</g>
<!-- 15&#45;&gt;16 -->
<g id="edge13" class="edge" data-name="15-&gt;16">

<path fill="none" stroke="indigo" d="M100.37,-694.45C102.05,-682.32 104.33,-665.82 106.25,-651.92" style=""/>
<polygon fill="indigo" stroke="indigo" points="109.73,-652.3 107.63,-641.91 102.8,-651.34 109.73,-652.3" style=""/>
</g>
<!-- 19 -->
<g id="node15" class="node" pointer-events="visible" data-name="19">

<path fill="#bfe6d3" stroke="white" d="M42,-641.8C42,-641.8 12,-641.8 12,-641.8 6,-641.8 0,-635.8 0,-629.8 0,-629.8 0,-617.8 0,-617.8 0,-611.8 6,-605.8 12,-605.8 12,-605.8 42,-605.8 42,-605.8 48,-605.8 54,-611.8 54,-617.8 54,-617.8 54,-629.8 54,-629.8 54,-635.8 48,-641.8 42,-641.8" style=""/>
<text text-anchor="middle" x="27" y="-619.6" font-family="Times,serif" font-size="14.00" style="">args</text>
</g>
<!-- 15&#45;&gt;19 -->
<g id="edge14" class="edge" data-name="15-&gt;19">

<path fill="none" stroke="indigo" d="M83.97,-694.45C73.57,-681.73 59.22,-664.19 47.53,-649.89" style=""/>
<polygon fill="indigo" stroke="indigo" points="50.04,-647.44 41,-641.91 44.62,-651.87 50.04,-647.44" style=""/>
</g>
<!-- 17 -->
<g id="node13" class="node" pointer-events="visible" data-name="17">

<path fill="#bfe6d3" stroke="white" d="M42,-553C42,-553 12,-553 12,-553 6,-553 0,-547 0,-541 0,-541 0,-529 0,-529 0,-523 6,-517 12,-517 12,-517 42,-517 42,-517 48,-517 54,-523 54,-529 54,-529 54,-541 54,-541 54,-547 48,-553 42,-553" style=""/>
<text text-anchor="middle" x="27" y="-530.8" font-family="Times,serif" font-size="14.00" style="">String</text>
</g>
<!-- 16&#45;&gt;17 -->
<g id="edge15" class="edge" data-name="16-&gt;17">

<path fill="none" stroke="indigo" d="M93.6,-605.65C81.32,-592.81 64.35,-575.06 50.61,-560.69" style=""/>
<polygon fill="indigo" stroke="indigo" points="52.8,-557.92 43.36,-553.11 47.75,-562.76 52.8,-557.92" style=""/>
</g>
<!-- 18 -->
<g id="node14" class="node" pointer-events="visible" data-name="18">

<path fill="#bfe6d3" stroke="white" d="M139.78,-553C139.78,-553 84.22,-553 84.22,-553 78.22,-553 72.22,-547 72.22,-541 72.22,-541 72.22,-529 72.22,-529 72.22,-523 78.22,-517 84.22,-517 84.22,-517 139.78,-517 139.78,-517 145.78,-517 151.78,-523 151.78,-529 151.78,-529 151.78,-541 151.78,-541 151.78,-547 145.78,-553 139.78,-553" style=""/>
<text text-anchor="middle" x="112" y="-530.8" font-family="Times,serif" font-size="14.00" style="">dimensions</text>
</g>
<!-- 16&#45;&gt;18 -->
<g id="edge16" class="edge" data-name="16-&gt;18">

<path fill="none" stroke="indigo" d="M110.4,-605.65C110.67,-593.52 111.05,-577.02 111.38,-563.12" style=""/>
<polygon fill="indigo" stroke="indigo" points="114.87,-563.19 111.61,-553.11 107.88,-563.03 114.87,-563.19" style=""/>
</g>
<!-- 20&#45;&gt;21 -->
<g id="edge17" class="edge" data-name="20-&gt;21">

<path fill="none" stroke="indigo" d="M480.13,-769.86C491.53,-763.63 504.93,-756.3 517,-749.6 525.11,-745.1 533.77,-740.26 542.02,-735.62" style=""/>
<polygon fill="indigo" stroke="indigo" points="543.76,-738.66 550.76,-730.71 540.33,-732.56 543.76,-738.66" style=""/>
</g>
<!-- 29 -->
<g id="node25" class="node" pointer-events="visible" data-name="29">

<path fill="#bfe6d3" stroke="white" d="M528.79,-641.8C528.79,-641.8 493.21,-641.8 493.21,-641.8 487.21,-641.8 481.21,-635.8 481.21,-629.8 481.21,-629.8 481.21,-617.8 481.21,-617.8 481.21,-611.8 487.21,-605.8 493.21,-605.8 493.21,-605.8 528.79,-605.8 528.79,-605.8 534.79,-605.8 540.79,-611.8 540.79,-617.8 540.79,-617.8 540.79,-629.8 540.79,-629.8 540.79,-635.8 534.79,-641.8 528.79,-641.8" style=""/>
<text text-anchor="middle" x="511" y="-619.6" font-family="Times,serif" font-size="14.00" style="">3_ x=3;</text>
</g>
<!-- 20&#45;&gt;29 -->
<g id="edge18" class="edge" data-name="20-&gt;29">

<path fill="none" stroke="indigo" d="M459.98,-767.57C462.27,-761.87 464.79,-755.48 467,-749.6 479.65,-715.96 493.27,-676.83 501.95,-651.48" style=""/>
<polygon fill="indigo" stroke="indigo" points="505.33,-652.43 505.24,-641.84 498.7,-650.17 505.33,-652.43" style=""/>
</g>
<!-- 33 -->
<g id="node29" class="node" pointer-events="visible" data-name="33">

<path fill="#bfe6d3" stroke="white" d="M489.79,-553C489.79,-553 454.21,-553 454.21,-553 448.21,-553 442.21,-547 442.21,-541 442.21,-541 442.21,-529 442.21,-529 442.21,-523 448.21,-517 454.21,-517 454.21,-517 489.79,-517 489.79,-517 495.79,-517 501.79,-523 501.79,-529 501.79,-529 501.79,-541 501.79,-541 501.79,-547 495.79,-553 489.79,-553" style=""/>
<text text-anchor="middle" x="472" y="-530.8" font-family="Times,serif" font-size="14.00" style="">4_ y=6;</text>
</g>
<!-- 20&#45;&gt;33 -->
<g id="edge19" class="edge" data-name="20-&gt;33">

<path fill="none" stroke="indigo" d="M454.31,-767.51C457.55,-725.11 465.98,-614.8 469.92,-563.27" style=""/>
<polygon fill="indigo" stroke="indigo" points="473.41,-563.44 470.68,-553.21 466.43,-562.91 473.41,-563.44" style=""/>
</g>
<!-- 37 -->
<g id="node33" class="node" pointer-events="visible" data-name="37">

<path fill="#bfe6d3" stroke="white" d="M382.77,-464.2C382.77,-464.2 333.23,-464.2 333.23,-464.2 327.23,-464.2 321.23,-458.2 321.23,-452.2 321.23,-452.2 321.23,-440.2 321.23,-440.2 321.23,-434.2 327.23,-428.2 333.23,-428.2 333.23,-428.2 382.77,-428.2 382.77,-428.2 388.77,-428.2 394.77,-434.2 394.77,-440.2 394.77,-440.2 394.77,-452.2 394.77,-452.2 394.77,-458.2 388.77,-464.2 382.77,-464.2" style=""/>
<text text-anchor="middle" x="358" y="-442" font-family="Times,serif" font-size="14.00" style="">5_ if(x&gt;y)</text>
</g>
<!-- 20&#45;&gt;37 -->
<g id="edge20" class="edge" data-name="20-&gt;37">

<path fill="none" stroke="indigo" d="M425.98,-771.55C422.97,-770.18 419.93,-768.84 417,-767.6 354.04,-740.98 273,-781.95 273,-713.6 273,-713.6 273,-713.6 273,-534 273,-506.81 294.55,-485 315.94,-470.04" style=""/>
<polygon fill="indigo" stroke="indigo" points="317.99,-472.88 324.41,-464.45 314.13,-467.04 317.99,-472.88" style=""/>
</g>
<!-- 50 -->
<g id="node46" class="node" pointer-events="visible" data-name="50">

<path fill="#bfe6d3" stroke="white" d="M253.32,-197.8C253.32,-197.8 206.68,-197.8 206.68,-197.8 200.68,-197.8 194.68,-191.8 194.68,-185.8 194.68,-185.8 194.68,-173.8 194.68,-173.8 194.68,-167.8 200.68,-161.8 206.68,-161.8 206.68,-161.8 253.32,-161.8 253.32,-161.8 259.32,-161.8 265.32,-167.8 265.32,-173.8 265.32,-173.8 265.32,-185.8 265.32,-185.8 265.32,-191.8 259.32,-197.8 253.32,-197.8" style=""/>
<text text-anchor="middle" x="230" y="-175.6" font-family="Times,serif" font-size="14.00" style="">9_ return;</text>
</g>
<!-- 20&#45;&gt;50 -->
<g id="edge21" class="edge" data-name="20-&gt;50">

<path fill="none" stroke="indigo" d="M425.82,-770.72C422.89,-769.54 419.92,-768.47 417,-767.6 366.05,-752.46 184,-766.75 184,-713.6 184,-713.6 184,-713.6 184,-267.6 184,-244.94 196.39,-222.43 208.3,-206.01" style=""/>
<polygon fill="indigo" stroke="indigo" points="211.13,-208.08 214.43,-198.01 205.57,-203.82 211.13,-208.08" style=""/>
</g>
<!-- 22 -->
<g id="node18" class="node" pointer-events="visible" data-name="22">

<path fill="#bfe6d3" stroke="white" d="M778.86,-641.8C778.86,-641.8 713.14,-641.8 713.14,-641.8 707.14,-641.8 701.14,-635.8 701.14,-629.8 701.14,-629.8 701.14,-617.8 701.14,-617.8 701.14,-611.8 707.14,-605.8 713.14,-605.8 713.14,-605.8 778.86,-605.8 778.86,-605.8 784.86,-605.8 790.86,-611.8 790.86,-617.8 790.86,-617.8 790.86,-629.8 790.86,-629.8 790.86,-635.8 784.86,-641.8 778.86,-641.8" style=""/>
<text text-anchor="middle" x="746" y="-619.6" font-family="Times,serif" font-size="14.00" style="">integral_type</text>
</g>
<!-- 21&#45;&gt;22 -->
<g id="edge22" class="edge" data-name="21-&gt;22">

<path fill="none" stroke="indigo" d="M613.6,-694.45C639.59,-680.78 676.16,-661.54 704.28,-646.75" style=""/>
<polygon fill="indigo" stroke="indigo" points="706.25,-649.67 713.47,-641.91 702.99,-643.47 706.25,-649.67" style=""/>
</g>
<!-- 23 -->
<g id="node19" class="node" pointer-events="visible" data-name="23">

<path fill="#bfe6d3" stroke="white" d="M413.04,-641.8C413.04,-641.8 312.96,-641.8 312.96,-641.8 306.96,-641.8 300.96,-635.8 300.96,-629.8 300.96,-629.8 300.96,-617.8 300.96,-617.8 300.96,-611.8 306.96,-605.8 312.96,-605.8 312.96,-605.8 413.04,-605.8 413.04,-605.8 419.04,-605.8 425.04,-611.8 425.04,-617.8 425.04,-617.8 425.04,-629.8 425.04,-629.8 425.04,-635.8 419.04,-641.8 413.04,-641.8" style=""/>
<text text-anchor="middle" x="363" y="-619.6" font-family="Times,serif" font-size="14.00" style="">variable_declarator</text>
</g>
<!-- 21&#45;&gt;23 -->
<g id="edge23" class="edge" data-name="21-&gt;23">

<path fill="none" stroke="indigo" d="M538.19,-694.55C503.02,-680.55 453.05,-660.65 415.47,-645.69" style=""/>
<polygon fill="indigo" stroke="indigo" points="416.3,-642.25 405.71,-641.81 413.71,-648.76 416.3,-642.25" style=""/>
</g>
<!-- 25 -->
<g id="node21" class="node" pointer-events="visible" data-name="25">

<path fill="#bfe6d3" stroke="white" d="M671.04,-641.8C671.04,-641.8 570.96,-641.8 570.96,-641.8 564.96,-641.8 558.96,-635.8 558.96,-629.8 558.96,-629.8 558.96,-617.8 558.96,-617.8 558.96,-611.8 564.96,-605.8 570.96,-605.8 570.96,-605.8 671.04,-605.8 671.04,-605.8 677.04,-605.8 683.04,-611.8 683.04,-617.8 683.04,-617.8 683.04,-629.8 683.04,-629.8 683.04,-635.8 677.04,-641.8 671.04,-641.8" style=""/>
<text text-anchor="middle" x="621" y="-619.6" font-family="Times,serif" font-size="14.00" style="">variable_declarator</text>
</g>
<!-- 21&#45;&gt;25 -->
<g id="edge24" class="edge" data-name="21-&gt;25">

<path fill="none" stroke="indigo" d="M588.9,-694.45C594.6,-682.09 602.4,-665.17 608.88,-651.1" style=""/>
<polygon fill="indigo" stroke="indigo" points="612.11,-652.46 613.11,-641.91 605.75,-649.53 612.11,-652.46" style=""/>
</g>
<!-- 27 -->
<g id="node23" class="node" pointer-events="visible" data-name="27">

<path fill="#bfe6d3" stroke="white" d="M921.04,-641.8C921.04,-641.8 820.96,-641.8 820.96,-641.8 814.96,-641.8 808.96,-635.8 808.96,-629.8 808.96,-629.8 808.96,-617.8 808.96,-617.8 808.96,-611.8 814.96,-605.8 820.96,-605.8 820.96,-605.8 921.04,-605.8 921.04,-605.8 927.04,-605.8 933.04,-611.8 933.04,-617.8 933.04,-617.8 933.04,-629.8 933.04,-629.8 933.04,-635.8 927.04,-641.8 921.04,-641.8" style=""/>
<text text-anchor="middle" x="871" y="-619.6" font-family="Times,serif" font-size="14.00" style="">variable_declarator</text>
</g>
<!-- 21&#45;&gt;27 -->
<g id="edge25" class="edge" data-name="21-&gt;27">

<path fill="none" stroke="indigo" d="M631.51,-696.48C679.48,-682.12 751.89,-660.45 804.53,-644.7" style=""/>
<polygon fill="indigo" stroke="indigo" points="805.54,-648.05 814.12,-641.83 803.53,-641.34 805.54,-648.05" style=""/>
</g>
<!-- 21&#45;&gt;29 -->
<g id="edge26" class="edge" data-name="21-&gt;29">

<path fill="none" stroke="red" d="M558.53,-694.28C552.42,-688.98 546.07,-682.88 540.9,-676.6 534.51,-668.83 528.67,-659.51 523.88,-650.94" style=""/>
<polygon fill="red" stroke="red" points="526.92,-649.2 519.12,-642.04 520.75,-652.5 526.92,-649.2" style=""/>
<text text-anchor="middle" x="566.05" y="-664" font-family="Times,serif" font-size="14.00" style="">next_line</text>
</g>
<!-- 24 -->
<g id="node20" class="node" pointer-events="visible" data-name="24">

<path fill="#bfe6d3" stroke="white" d="M378,-553C378,-553 348,-553 348,-553 342,-553 336,-547 336,-541 336,-541 336,-529 336,-529 336,-523 342,-517 348,-517 348,-517 378,-517 378,-517 384,-517 390,-523 390,-529 390,-529 390,-541 390,-541 390,-547 384,-553 378,-553" style=""/>
<text text-anchor="middle" x="363" y="-530.8" font-family="Times,serif" font-size="14.00" style="">x</text>
</g>
<!-- 23&#45;&gt;24 -->
<g id="edge27" class="edge" data-name="23-&gt;24">

<path fill="none" stroke="indigo" d="M363,-605.65C363,-593.52 363,-577.02 363,-563.12" style=""/>
<polygon fill="indigo" stroke="indigo" points="366.5,-563.11 363,-553.11 359.5,-563.11 366.5,-563.11" style=""/>
</g>
<!-- 26 -->
<g id="node22" class="node" pointer-events="visible" data-name="26">

<path fill="#bfe6d3" stroke="white" d="M636,-553C636,-553 606,-553 606,-553 600,-553 594,-547 594,-541 594,-541 594,-529 594,-529 594,-523 600,-517 606,-517 606,-517 636,-517 636,-517 642,-517 648,-523 648,-529 648,-529 648,-541 648,-541 648,-547 642,-553 636,-553" style=""/>
<text text-anchor="middle" x="621" y="-530.8" font-family="Times,serif" font-size="14.00" style="">y</text>
</g>
<!-- 25&#45;&gt;26 -->
<g id="edge28" class="edge" data-name="25-&gt;26">

<path fill="none" stroke="indigo" d="M621,-605.65C621,-593.52 621,-577.02 621,-563.12" style=""/>
<polygon fill="indigo" stroke="indigo" points="624.5,-563.11 621,-553.11 617.5,-563.11 624.5,-563.11" style=""/>
</g>
<!-- 28 -->
<g id="node24" class="node" pointer-events="visible" data-name="28">

<path fill="#bfe6d3" stroke="white" d="M886,-553C886,-553 856,-553 856,-553 850,-553 844,-547 844,-541 844,-541 844,-529 844,-529 844,-523 850,-517 856,-517 856,-517 886,-517 886,-517 892,-517 898,-523 898,-529 898,-529 898,-541 898,-541 898,-547 892,-553 886,-553" style=""/>
<text text-anchor="middle" x="871" y="-530.8" font-family="Times,serif" font-size="14.00" style="">max</text>
</g>
<!-- 27&#45;&gt;28 -->
<g id="edge29" class="edge" data-name="27-&gt;28">

<path fill="none" stroke="indigo" d="M871,-605.65C871,-593.52 871,-577.02 871,-563.12" style=""/>
<polygon fill="indigo" stroke="indigo" points="874.5,-563.11 871,-553.11 867.5,-563.11 874.5,-563.11" style=""/>
</g>
<!-- 30 -->
<g id="node26" class="node" pointer-events="visible" data-name="30">

<path fill="#bfe6d3" stroke="white" d="M707.87,-464.2C707.87,-464.2 586.13,-464.2 586.13,-464.2 580.13,-464.2 574.13,-458.2 574.13,-452.2 574.13,-452.2 574.13,-440.2 574.13,-440.2 574.13,-434.2 580.13,-428.2 586.13,-428.2 586.13,-428.2 707.87,-428.2 707.87,-428.2 713.87,-428.2 719.87,-434.2 719.87,-440.2 719.87,-440.2 719.87,-452.2 719.87,-452.2 719.87,-458.2 713.87,-464.2 707.87,-464.2" style=""/>
<text text-anchor="middle" x="647" y="-442" font-family="Times,serif" font-size="14.00" style="">assignment_expression</text>
</g>
<!-- 29&#45;&gt;30 -->
<g id="edge30" class="edge" data-name="29-&gt;30">

<path fill="none" stroke="indigo" d="M532.46,-605.49C538.25,-600.19 544.23,-594.09 549,-587.8 570.32,-559.66 565.12,-546.17 585,-517 595.96,-500.92 610.28,-484.57 622.4,-471.74" style=""/>
<polygon fill="indigo" stroke="indigo" points="625.2,-473.87 629.61,-464.24 620.15,-469.02 625.2,-473.87" style=""/>
</g>
<!-- 29&#45;&gt;33 -->
<g id="edge31" class="edge" data-name="29-&gt;33">

<path fill="none" stroke="red" d="M503.29,-605.65C497.74,-593.29 490.14,-576.37 483.82,-562.3" style=""/>
<polygon fill="red" stroke="red" points="486.98,-560.8 479.69,-553.11 480.6,-563.67 486.98,-560.8" style=""/>
<text text-anchor="middle" x="520.05" y="-575.2" font-family="Times,serif" font-size="14.00" style="">next_line</text>
</g>
<!-- 31 -->
<g id="node27" class="node" pointer-events="visible" data-name="31">

<path fill="#bfe6d3" stroke="white" d="M625,-286.6C625,-286.6 595,-286.6 595,-286.6 589,-286.6 583,-280.6 583,-274.6 583,-274.6 583,-262.6 583,-262.6 583,-256.6 589,-250.6 595,-250.6 595,-250.6 625,-250.6 625,-250.6 631,-250.6 637,-256.6 637,-262.6 637,-262.6 637,-274.6 637,-274.6 637,-280.6 631,-286.6 625,-286.6" style=""/>
<text text-anchor="middle" x="610" y="-264.4" font-family="Times,serif" font-size="14.00" style="">x</text>
</g>
<!-- 30&#45;&gt;31 -->
<g id="edge32" class="edge" data-name="30-&gt;31">

<path fill="none" stroke="indigo" d="M648.17,-428.06C649.16,-406.9 649.43,-369.95 642,-339.4 638.34,-324.33 631.39,-308.54 624.91,-295.8" style=""/>
<polygon fill="indigo" stroke="indigo" points="627.87,-293.91 620.1,-286.71 621.68,-297.19 627.87,-293.91" style=""/>
</g>
<!-- 32 -->
<g id="node28" class="node" pointer-events="visible" data-name="32">

<path fill="#bfe6d3" stroke="white" d="M731,-375.4C731,-375.4 701,-375.4 701,-375.4 695,-375.4 689,-369.4 689,-363.4 689,-363.4 689,-351.4 689,-351.4 689,-345.4 695,-339.4 701,-339.4 701,-339.4 731,-339.4 731,-339.4 737,-339.4 743,-345.4 743,-351.4 743,-351.4 743,-363.4 743,-363.4 743,-369.4 737,-375.4 731,-375.4" style=""/>
<text text-anchor="middle" x="716" y="-353.2" font-family="Times,serif" font-size="14.00" style="">3</text>
</g>
<!-- 30&#45;&gt;32 -->
<g id="edge33" class="edge" data-name="30-&gt;32">

<path fill="none" stroke="indigo" d="M660.69,-428.12C665.25,-422.43 670.35,-416.05 675,-410.2 681.86,-401.58 689.34,-392.15 696.01,-383.71" style=""/>
<polygon fill="indigo" stroke="indigo" points="698.9,-385.7 702.36,-375.68 693.41,-381.36 698.9,-385.7" style=""/>
</g>
<!-- 40 -->
<g id="node36" class="node" pointer-events="visible" data-name="40">

<path fill="#bfe6d3" stroke="white" d="M706,-197.8C706,-197.8 676,-197.8 676,-197.8 670,-197.8 664,-191.8 664,-185.8 664,-185.8 664,-173.8 664,-173.8 664,-167.8 670,-161.8 676,-161.8 676,-161.8 706,-161.8 706,-161.8 712,-161.8 718,-167.8 718,-173.8 718,-173.8 718,-185.8 718,-185.8 718,-191.8 712,-197.8 706,-197.8" style=""/>
<text text-anchor="middle" x="691" y="-175.6" font-family="Times,serif" font-size="14.00" style="">x</text>
</g>
<!-- 31&#45;&gt;40 -->
<g id="edge34" class="edge" data-name="31-&gt;40">

<path fill="none" stroke="#00a3ff" d="M626,-250.45C637.98,-237.61 654.55,-219.86 667.96,-205.49" style=""/>
<polygon fill="#00a3ff" stroke="#00a3ff" points="670.77,-207.61 675.03,-197.91 665.65,-202.84 670.77,-207.61" style=""/>
</g>
<!-- 45 -->
<g id="node41" class="node" pointer-events="visible" data-name="45">

<path fill="#bfe6d3" stroke="white" d="M470,-197.8C470,-197.8 440,-197.8 440,-197.8 434,-197.8 428,-191.8 428,-185.8 428,-185.8 428,-173.8 428,-173.8 428,-167.8 434,-161.8 440,-161.8 440,-161.8 470,-161.8 470,-161.8 476,-161.8 482,-167.8 482,-173.8 482,-173.8 482,-185.8 482,-185.8 482,-191.8 476,-197.8 470,-197.8" style=""/>
<text text-anchor="middle" x="455" y="-175.6" font-family="Times,serif" font-size="14.00" style="">x</text>
</g>
<!-- 31&#45;&gt;45 -->
<g id="edge35" class="edge" data-name="31-&gt;45">

<path fill="none" stroke="#00a3ff" d="M582.65,-252.28C557.19,-238.03 519.09,-216.69 491.14,-201.04" style=""/>
<polygon fill="#00a3ff" stroke="#00a3ff" points="492.52,-197.8 482.08,-195.97 489.1,-203.91 492.52,-197.8" style=""/>
</g>
<!-- 32&#45;&gt;31 -->
<g id="edge36" class="edge" data-name="32-&gt;31">

<path fill="none" stroke="#00a3ff" d="M704.59,-339.09C696.86,-328.26 685.92,-314.53 674,-304.6 669.04,-300.46 657.87,-294.07 646.23,-287.87" style=""/>
<polygon fill="#00a3ff" stroke="#00a3ff" points="647.81,-284.75 637.33,-283.21 644.57,-290.95 647.81,-284.75" style=""/>
</g>
<!-- 34 -->
<g id="node30" class="node" pointer-events="visible" data-name="34">

<path fill="#bfe6d3" stroke="white" d="M871.87,-464.2C871.87,-464.2 750.13,-464.2 750.13,-464.2 744.13,-464.2 738.13,-458.2 738.13,-452.2 738.13,-452.2 738.13,-440.2 738.13,-440.2 738.13,-434.2 744.13,-428.2 750.13,-428.2 750.13,-428.2 871.87,-428.2 871.87,-428.2 877.87,-428.2 883.87,-434.2 883.87,-440.2 883.87,-440.2 883.87,-452.2 883.87,-452.2 883.87,-458.2 877.87,-464.2 871.87,-464.2" style=""/>
<text text-anchor="middle" x="811" y="-442" font-family="Times,serif" font-size="14.00" style="">assignment_expression</text>
</g>
<!-- 33&#45;&gt;34 -->
<g id="edge37" class="edge" data-name="33-&gt;34">

<path fill="none" stroke="indigo" d="M501.79,-526.37C553.43,-513.15 661.11,-485.58 734.73,-466.73" style=""/>
<polygon fill="indigo" stroke="indigo" points="735.61,-470.12 744.43,-464.24 733.88,-463.33 735.61,-470.12" style=""/>
</g>
<!-- 33&#45;&gt;37 -->
<g id="edge38" class="edge" data-name="33-&gt;37">

<path fill="none" stroke="red" d="M449.48,-516.85C432.07,-503.6 407.78,-485.11 388.61,-470.51" style=""/>
<polygon fill="red" stroke="red" points="390.55,-467.59 380.48,-464.31 386.31,-473.16 390.55,-467.59" style=""/>
<text text-anchor="middle" x="451.05" y="-486.4" font-family="Times,serif" font-size="14.00" style="">next_line</text>
</g>
<!-- 35 -->
<g id="node31" class="node" pointer-events="visible" data-name="35">

<path fill="#bfe6d3" stroke="white" d="M833,-286.6C833,-286.6 803,-286.6 803,-286.6 797,-286.6 791,-280.6 791,-274.6 791,-274.6 791,-262.6 791,-262.6 791,-256.6 797,-250.6 803,-250.6 803,-250.6 833,-250.6 833,-250.6 839,-250.6 845,-256.6 845,-262.6 845,-262.6 845,-274.6 845,-274.6 845,-280.6 839,-286.6 833,-286.6" style=""/>
<text text-anchor="middle" x="818" y="-264.4" font-family="Times,serif" font-size="14.00" style="">y</text>
</g>
<!-- 34&#45;&gt;35 -->
<g id="edge39" class="edge" data-name="34-&gt;35">

<path fill="none" stroke="indigo" d="M811.62,-427.97C812.39,-407.03 813.74,-370.62 815,-339.4 815.57,-325.39 816.23,-309.79 816.79,-296.91" style=""/>
<polygon fill="indigo" stroke="indigo" points="820.29,-296.95 817.24,-286.81 813.3,-296.65 820.29,-296.95" style=""/>
</g>
<!-- 36 -->
<g id="node32" class="node" pointer-events="visible" data-name="36">

<path fill="#bfe6d3" stroke="white" d="M866,-375.4C866,-375.4 836,-375.4 836,-375.4 830,-375.4 824,-369.4 824,-363.4 824,-363.4 824,-351.4 824,-351.4 824,-345.4 830,-339.4 836,-339.4 836,-339.4 866,-339.4 866,-339.4 872,-339.4 878,-345.4 878,-351.4 878,-351.4 878,-363.4 878,-363.4 878,-369.4 872,-375.4 866,-375.4" style=""/>
<text text-anchor="middle" x="851" y="-353.2" font-family="Times,serif" font-size="14.00" style="">6</text>
</g>
<!-- 34&#45;&gt;36 -->
<g id="edge40" class="edge" data-name="34-&gt;36">

<path fill="none" stroke="indigo" d="M818.9,-428.05C824.6,-415.69 832.4,-398.77 838.88,-384.7" style=""/>
<polygon fill="indigo" stroke="indigo" points="842.11,-386.06 843.11,-375.51 835.75,-383.13 842.11,-386.06" style=""/>
</g>
<!-- 41 -->
<g id="node37" class="node" pointer-events="visible" data-name="41">

<path fill="#bfe6d3" stroke="white" d="M778,-197.8C778,-197.8 748,-197.8 748,-197.8 742,-197.8 736,-191.8 736,-185.8 736,-185.8 736,-173.8 736,-173.8 736,-167.8 742,-161.8 748,-161.8 748,-161.8 778,-161.8 778,-161.8 784,-161.8 790,-167.8 790,-173.8 790,-173.8 790,-185.8 790,-185.8 790,-191.8 784,-197.8 778,-197.8" style=""/>
<text text-anchor="middle" x="763" y="-175.6" font-family="Times,serif" font-size="14.00" style="">y</text>
</g>
<!-- 35&#45;&gt;41 -->
<g id="edge41" class="edge" data-name="35-&gt;41">

<path fill="none" stroke="#00a3ff" d="M807.13,-250.45C799.22,-237.97 788.37,-220.84 779.41,-206.7" style=""/>
<polygon fill="#00a3ff" stroke="#00a3ff" points="782.15,-204.49 773.84,-197.91 776.24,-208.23 782.15,-204.49" style=""/>
</g>
<!-- 49 -->
<g id="node45" class="node" pointer-events="visible" data-name="49">

<path fill="#bfe6d3" stroke="white" d="M643,-109C643,-109 613,-109 613,-109 607,-109 601,-103 601,-97 601,-97 601,-85 601,-85 601,-79 607,-73 613,-73 613,-73 643,-73 643,-73 649,-73 655,-79 655,-85 655,-85 655,-97 655,-97 655,-103 649,-109 643,-109" style=""/>
<text text-anchor="middle" x="628" y="-86.8" font-family="Times,serif" font-size="14.00" style="">y</text>
</g>
<!-- 35&#45;&gt;49 -->
<g id="edge42" class="edge" data-name="35-&gt;49">

<path fill="none" stroke="#00a3ff" d="M819.65,-250.54C820.9,-227.76 819.66,-187.33 799,-161.8 765.85,-120.85 704.81,-103.71 665.33,-96.69" style=""/>
<polygon fill="#00a3ff" stroke="#00a3ff" points="665.74,-93.21 655.3,-95.04 664.6,-100.11 665.74,-93.21" style=""/>
</g>
<!-- 36&#45;&gt;35 -->
<g id="edge43" class="edge" data-name="36-&gt;35">

<path fill="none" stroke="#00a3ff" d="M844.48,-339.25C839.82,-327.01 833.47,-310.29 828.16,-296.31" style=""/>
<polygon fill="#00a3ff" stroke="#00a3ff" points="831.33,-294.82 824.51,-286.71 824.79,-297.3 831.33,-294.82" style=""/>
</g>
<!-- 38 -->
<g id="node34" class="node" pointer-events="visible" data-name="38">

<path fill="#bfe6d3" stroke="white" d="M620.84,-375.4C620.84,-375.4 485.16,-375.4 485.16,-375.4 479.16,-375.4 473.16,-369.4 473.16,-363.4 473.16,-363.4 473.16,-351.4 473.16,-351.4 473.16,-345.4 479.16,-339.4 485.16,-339.4 485.16,-339.4 620.84,-339.4 620.84,-339.4 626.84,-339.4 632.84,-345.4 632.84,-351.4 632.84,-351.4 632.84,-363.4 632.84,-363.4 632.84,-369.4 626.84,-375.4 620.84,-375.4" style=""/>
<text text-anchor="middle" x="553" y="-353.2" font-family="Times,serif" font-size="14.00" style="">parenthesized_expression</text>
</g>
<!-- 37&#45;&gt;38 -->
<g id="edge44" class="edge" data-name="37-&gt;38">

<path fill="none" stroke="indigo" d="M394.68,-428.87C425.94,-414.96 471.09,-394.86 505.18,-379.68" style=""/>
<polygon fill="indigo" stroke="indigo" points="506.77,-382.81 514.49,-375.54 503.93,-376.41 506.77,-382.81" style=""/>
</g>
<!-- 42 -->
<g id="node38" class="node" pointer-events="visible" data-name="42">

<path fill="#bfe6d3" stroke="white" d="M288.89,-375.4C288.89,-375.4 229.11,-375.4 229.11,-375.4 223.11,-375.4 217.11,-369.4 217.11,-363.4 217.11,-363.4 217.11,-351.4 217.11,-351.4 217.11,-345.4 223.11,-339.4 229.11,-339.4 229.11,-339.4 288.89,-339.4 288.89,-339.4 294.89,-339.4 300.89,-345.4 300.89,-351.4 300.89,-351.4 300.89,-363.4 300.89,-363.4 300.89,-369.4 294.89,-375.4 288.89,-375.4" style=""/>
<text text-anchor="middle" x="259" y="-353.2" font-family="Times,serif" font-size="14.00" style="">6_ max = x;</text>
</g>
<!-- 37&#45;&gt;42 -->
<g id="edge45" class="edge" data-name="37-&gt;42">

<path fill="none" stroke="indigo" d="M320.95,-437.84C304.16,-432.73 285.34,-424.21 273,-410.2 266.98,-403.37 263.52,-394.2 261.54,-385.48" style=""/>
<polygon fill="indigo" stroke="indigo" points="264.98,-384.86 259.82,-375.61 258.08,-386.06 264.98,-384.86" style=""/>
</g>
<!-- 37&#45;&gt;42 -->
<g id="edge46" class="edge" data-name="37-&gt;42">

<path fill="none" stroke="red" d="M321.12,-429.18C311.48,-423.97 301.54,-417.6 293.45,-410.2 285.52,-402.95 278.55,-393.52 273,-384.69" style=""/>
<polygon fill="red" stroke="red" points="275.85,-382.64 267.73,-375.83 269.83,-386.21 275.85,-382.64" style=""/>
<text text-anchor="middle" x="319.28" y="-397.6" font-family="Times,serif" font-size="14.00" style="">pos_next</text>
</g>
<!-- 46 -->
<g id="node42" class="node" pointer-events="visible" data-name="46">

<path fill="#bfe6d3" stroke="white" d="M535.89,-286.6C535.89,-286.6 476.11,-286.6 476.11,-286.6 470.11,-286.6 464.11,-280.6 464.11,-274.6 464.11,-274.6 464.11,-262.6 464.11,-262.6 464.11,-256.6 470.11,-250.6 476.11,-250.6 476.11,-250.6 535.89,-250.6 535.89,-250.6 541.89,-250.6 547.89,-256.6 547.89,-262.6 547.89,-262.6 547.89,-274.6 547.89,-274.6 547.89,-280.6 541.89,-286.6 535.89,-286.6" style=""/>
<text text-anchor="middle" x="506" y="-264.4" font-family="Times,serif" font-size="14.00" style="">8_ max = y;</text>
</g>
<!-- 37&#45;&gt;46 -->
<g id="edge47" class="edge" data-name="37-&gt;46">

<path fill="none" stroke="indigo" d="M356.69,-427.91C355.46,-398.49 357.46,-338.61 390,-304.6 408.78,-284.97 423.36,-293.32 453.99,-286.45" style=""/>
<polygon fill="indigo" stroke="indigo" points="455.26,-289.73 464.03,-283.78 453.47,-282.97 455.26,-289.73" style=""/>
</g>
<!-- 37&#45;&gt;46 -->
<g id="edge48" class="edge" data-name="37-&gt;46">

<path fill="none" stroke="red" d="M364.08,-428.04C372.52,-405.86 389.43,-366.85 412.68,-339.4 428.19,-321.09 449.36,-304.77 467.61,-292.52" style=""/>
<polygon fill="red" stroke="red" points="469.84,-295.24 476.3,-286.84 466.01,-289.38 469.84,-295.24" style=""/>
<text text-anchor="middle" x="437.66" y="-353.2" font-family="Times,serif" font-size="14.00" style="">neg_next</text>
</g>
<!-- 39 -->
<g id="node35" class="node" pointer-events="visible" data-name="39">

<path fill="#bfe6d3" stroke="white" d="M761.14,-286.6C761.14,-286.6 666.86,-286.6 666.86,-286.6 660.86,-286.6 654.86,-280.6 654.86,-274.6 654.86,-274.6 654.86,-262.6 654.86,-262.6 654.86,-256.6 660.86,-250.6 666.86,-250.6 666.86,-250.6 761.14,-250.6 761.14,-250.6 767.14,-250.6 773.14,-256.6 773.14,-262.6 773.14,-262.6 773.14,-274.6 773.14,-274.6 773.14,-280.6 767.14,-286.6 761.14,-286.6" style=""/>
<text text-anchor="middle" x="714" y="-264.4" font-family="Times,serif" font-size="14.00" style="">binary_expression</text>
</g>
<!-- 38&#45;&gt;39 -->
<g id="edge49" class="edge" data-name="38-&gt;39">

<path fill="none" stroke="indigo" d="M584.81,-339.25C610.17,-325.58 645.85,-306.34 673.29,-291.55" style=""/>
<polygon fill="indigo" stroke="indigo" points="675.12,-294.54 682.26,-286.71 671.79,-288.38 675.12,-294.54" style=""/>
</g>
<!-- 39&#45;&gt;40 -->
<g id="edge50" class="edge" data-name="39-&gt;40">

<path fill="none" stroke="indigo" d="M709.46,-250.45C706.24,-238.32 701.87,-221.82 698.19,-207.92" style=""/>
<polygon fill="indigo" stroke="indigo" points="701.48,-206.68 695.53,-197.91 694.71,-208.48 701.48,-206.68" style=""/>
</g>
<!-- 39&#45;&gt;41 -->
<g id="edge51" class="edge" data-name="39-&gt;41">

<path fill="none" stroke="indigo" d="M723.68,-250.45C730.73,-237.97 740.39,-220.84 748.38,-206.7" style=""/>
<polygon fill="indigo" stroke="indigo" points="751.47,-208.34 753.34,-197.91 745.38,-204.9 751.47,-208.34" style=""/>
</g>
<!-- 43 -->
<g id="node39" class="node" pointer-events="visible" data-name="43">

<path fill="#bfe6d3" stroke="white" d="M433.87,-286.6C433.87,-286.6 312.13,-286.6 312.13,-286.6 306.13,-286.6 300.13,-280.6 300.13,-274.6 300.13,-274.6 300.13,-262.6 300.13,-262.6 300.13,-256.6 306.13,-250.6 312.13,-250.6 312.13,-250.6 433.87,-250.6 433.87,-250.6 439.87,-250.6 445.87,-256.6 445.87,-262.6 445.87,-262.6 445.87,-274.6 445.87,-274.6 445.87,-280.6 439.87,-286.6 433.87,-286.6" style=""/>
<text text-anchor="middle" x="373" y="-264.4" font-family="Times,serif" font-size="14.00" style="">assignment_expression</text>
</g>
<!-- 42&#45;&gt;43 -->
<g id="edge52" class="edge" data-name="42-&gt;43">

<path fill="none" stroke="indigo" d="M259.28,-339.05C260.35,-327.94 263.48,-313.9 272,-304.6 277.42,-298.68 283.89,-293.77 290.9,-289.68" style=""/>
<polygon fill="indigo" stroke="indigo" points="292.77,-292.65 300.04,-284.94 289.55,-286.44 292.77,-292.65" style=""/>
</g>
<!-- 42&#45;&gt;46 -->
<g id="edge53" class="edge" data-name="42-&gt;46">

<path fill="none" stroke="red" d="M265.24,-339.24C270.47,-327.45 279.16,-312.55 291.9,-304.6 320.73,-286.63 406.49,-293.3 454.3,-286.14" style=""/>
<polygon fill="red" stroke="red" points="454.97,-289.57 464.17,-284.32 453.7,-282.69 454.97,-289.57" style=""/>
<text text-anchor="middle" x="318.05" y="-308.8" font-family="Times,serif" font-size="14.00" style="">next_line</text>
</g>
<!-- 42&#45;&gt;50 -->
<g id="edge54" class="edge" data-name="42-&gt;50">

<path fill="none" stroke="red" d="M253,-339.13C248.39,-325.14 242.26,-304.83 238.9,-286.6 234.05,-260.24 231.84,-229.68 230.83,-208.21" style=""/>
<polygon fill="red" stroke="red" points="234.33,-208.01 230.42,-198.16 227.33,-208.3 234.33,-208.01" style=""/>
<text text-anchor="middle" x="265.05" y="-264.4" font-family="Times,serif" font-size="14.00" style="">next_line</text>
</g>
<!-- 44 -->
<g id="node40" class="node" pointer-events="visible" data-name="44">

<path fill="#bfe6d3" stroke="white" d="M428,-109C428,-109 398,-109 398,-109 392,-109 386,-103 386,-97 386,-97 386,-85 386,-85 386,-79 392,-73 398,-73 398,-73 428,-73 428,-73 434,-73 440,-79 440,-85 440,-85 440,-97 440,-97 440,-103 434,-109 428,-109" style=""/>
<text text-anchor="middle" x="413" y="-86.8" font-family="Times,serif" font-size="14.00" style="">max</text>
</g>
<!-- 43&#45;&gt;44 -->
<g id="edge55" class="edge" data-name="43-&gt;44">

<path fill="none" stroke="indigo" d="M373.9,-250.22C374.61,-240.12 375.86,-227.17 378,-215.8 384.36,-182 395.73,-144.06 403.79,-119.2" style=""/>
<polygon fill="indigo" stroke="indigo" points="407.21,-119.99 407.01,-109.4 400.56,-117.8 407.21,-119.99" style=""/>
</g>
<!-- 43&#45;&gt;45 -->
<g id="edge56" class="edge" data-name="43-&gt;45">

<path fill="none" stroke="indigo" d="M429.52,-250.53C437.46,-245.88 444.71,-240.01 450,-232.6 454.95,-225.67 456.93,-216.83 457.46,-208.42" style=""/>
<polygon fill="indigo" stroke="indigo" points="460.96,-208.17 457.47,-198.17 453.96,-208.16 460.96,-208.17" style=""/>
</g>
<!-- 45&#45;&gt;44 -->
<g id="edge57" class="edge" data-name="45-&gt;44">

<path fill="none" stroke="#00a3ff" d="M446.7,-161.65C440.72,-149.29 432.53,-132.37 425.73,-118.3" style=""/>
<polygon fill="#00a3ff" stroke="#00a3ff" points="428.79,-116.59 421.28,-109.11 422.49,-119.64 428.79,-116.59" style=""/>
</g>
<!-- 47 -->
<g id="node43" class="node" pointer-events="visible" data-name="47">

<path fill="#bfe6d3" stroke="white" d="M633.87,-197.8C633.87,-197.8 512.13,-197.8 512.13,-197.8 506.13,-197.8 500.13,-191.8 500.13,-185.8 500.13,-185.8 500.13,-173.8 500.13,-173.8 500.13,-167.8 506.13,-161.8 512.13,-161.8 512.13,-161.8 633.87,-161.8 633.87,-161.8 639.87,-161.8 645.87,-167.8 645.87,-173.8 645.87,-173.8 645.87,-185.8 645.87,-185.8 645.87,-191.8 639.87,-197.8 633.87,-197.8" style=""/>
<text text-anchor="middle" x="573" y="-175.6" font-family="Times,serif" font-size="14.00" style="">assignment_expression</text>
</g>
<!-- 46&#45;&gt;47 -->
<g id="edge58" class="edge" data-name="46-&gt;47">

<path fill="none" stroke="indigo" d="M519.24,-250.45C529.06,-237.73 542.6,-220.19 553.63,-205.89" style=""/>
<polygon fill="indigo" stroke="indigo" points="556.45,-207.97 559.79,-197.91 550.91,-203.69 556.45,-207.97" style=""/>
</g>
<!-- 46&#45;&gt;50 -->
<g id="edge59" class="edge" data-name="46-&gt;50">

<path fill="none" stroke="red" d="M464.27,-253.61C461.14,-252.59 458.02,-251.57 455,-250.6 392.79,-230.59 320.59,-208.36 275.1,-194.49" style=""/>
<polygon fill="red" stroke="red" points="276.12,-191.14 265.53,-191.57 274.08,-197.84 276.12,-191.14" style=""/>
<text text-anchor="middle" x="419.05" y="-220" font-family="Times,serif" font-size="14.00" style="">next_line</text>
</g>
<!-- 48 -->
<g id="node44" class="node" pointer-events="visible" data-name="48">

<path fill="#bfe6d3" stroke="white" d="M600,-36C600,-36 570,-36 570,-36 564,-36 558,-30 558,-24 558,-24 558,-12 558,-12 558,-6 564,0 570,0 570,0 600,0 600,0 606,0 612,-6 612,-12 612,-12 612,-24 612,-24 612,-30 606,-36 600,-36" style=""/>
<text text-anchor="middle" x="585" y="-13.8" font-family="Times,serif" font-size="14.00" style="">max</text>
</g>
<!-- 47&#45;&gt;48 -->
<g id="edge60" class="edge" data-name="47-&gt;48">

<path fill="none" stroke="indigo" d="M574.28,-161.7C576.35,-134.21 580.42,-79.93 582.91,-46.81" style=""/>
<polygon fill="indigo" stroke="indigo" points="586.43,-46.7 583.69,-36.46 579.45,-46.17 586.43,-46.7" style=""/>
</g>
<!-- 47&#45;&gt;49 -->
<g id="edge61" class="edge" data-name="47-&gt;49">

<path fill="none" stroke="indigo" d="M583.87,-161.65C591.78,-149.17 602.63,-132.04 611.59,-117.9" style=""/>
<polygon fill="indigo" stroke="indigo" points="614.76,-119.43 617.16,-109.11 608.85,-115.69 614.76,-119.43" style=""/>
</g>
<!-- 49&#45;&gt;48 -->
<g id="edge62" class="edge" data-name="49-&gt;48">

<path fill="none" stroke="#00a3ff" d="M617.59,-72.81C612.47,-64.35 606.19,-53.98 600.51,-44.61" style=""/>
<polygon fill="#00a3ff" stroke="#00a3ff" points="603.49,-42.77 595.31,-36.03 597.5,-46.4 603.49,-42.77" style=""/>
</g>
<!-- 2 -->
<g id="node48" class="node" pointer-events="visible" data-name="2">

<ellipse fill="none" stroke="black" cx="230" cy="-91" rx="61.38" ry="18" style=""/>
<text text-anchor="middle" x="230" y="-86.8" font-family="Times,serif" font-size="14.00" style="">0_ exit_node</text>
</g>
<!-- 50&#45;&gt;2 -->
<g id="edge63" class="edge" data-name="50-&gt;2">

<path fill="none" stroke="red" d="M230,-161.65C230,-149.52 230,-133.02 230,-119.12" style=""/>
<polygon fill="red" stroke="red" points="233.5,-119.11 230,-109.11 226.5,-119.11 233.5,-119.11" style=""/>
<text text-anchor="middle" x="260.71" y="-131.2" font-family="Times,serif" font-size="14.00" style="">return_exit</text>
</g>
<!-- 1 -->
<g id="node47" class="node" pointer-events="visible" data-name="1">

<ellipse fill="none" stroke="black" cx="334" cy="-947.4" rx="63.17" ry="18" style=""/>
<text text-anchor="middle" x="334" y="-943.2" font-family="Times,serif" font-size="14.00" style="">0_ start_node</text>
</g>
<!-- 1&#45;&gt;10 -->
<g id="edge64" class="edge" data-name="1-&gt;10">

<path fill="none" stroke="red" d="M322.43,-929.66C313.75,-917.1 301.69,-899.66 291.79,-885.33" style=""/>
<polygon fill="red" stroke="red" points="294.51,-883.11 285.94,-876.88 288.75,-887.09 294.51,-883.11" style=""/>
<text text-anchor="middle" x="321.05" y="-898.8" font-family="Times,serif" font-size="14.00" style="">next</text>
</g>
</g>
</svg>